<svg width="1440" height="900" viewBox="0 0 1440 900" fill="none" xmlns="http://www.w3.org/2000/svg" font-family="'Mona Sans', 'Helvetica Neue', Arial, sans-serif">
  <defs>
    <linearGradient id="chartFill" x1="0" y1="0" x2="0" y2="1">
      <stop offset="0%" stop-color="#4646f0" stop-opacity="0.22"/>
      <stop offset="100%" stop-color="#4646f0" stop-opacity="0"/>
    </linearGradient>
    <clipPath id="frame"><rect width="1440" height="900" rx="0"/></clipPath>
  </defs>

  <g clip-path="url(#frame)">
    <!-- Fond -->
    <rect width="1440" height="900" fill="#f7f8fc"/>

    <!-- Barre navigateur -->
    <rect width="1440" height="44" fill="#ececf4"/>
    <circle cx="24" cy="22" r="6" fill="#ff5f57"/>
    <circle cx="44" cy="22" r="6" fill="#febc2e"/>
    <circle cx="64" cy="22" r="6" fill="#28c840"/>
    <rect x="560" y="10" width="320" height="24" rx="12" fill="#ffffff"/>
    <text x="720" y="26" text-anchor="middle" font-size="12" fill="#8b8b9e">app.wenimmo.com</text>

    <!-- Sidebar -->
    <rect x="0" y="44" width="220" height="856" fill="#0e0e2c"/>
    <text x="24" y="92" font-size="19" font-weight="700" fill="#ffffff">Wenimmo</text>

    <rect x="12" y="124" width="196" height="38" rx="8" fill="#4646f0"/>
    <text x="28" y="148" font-size="13.5" font-weight="600" fill="#ffffff">Tableau de bord</text>
    <text x="28" y="196" font-size="13.5" fill="#9a9ab8">SCPI</text>
    <text x="28" y="240" font-size="13.5" fill="#9a9ab8">Assurance vie</text>
    <text x="28" y="284" font-size="13.5" fill="#9a9ab8">Private Equity</text>
    <text x="28" y="328" font-size="13.5" fill="#9a9ab8">GFI / GFV</text>
    <text x="28" y="372" font-size="13.5" fill="#9a9ab8">Financement</text>
    <text x="28" y="416" font-size="13.5" fill="#9a9ab8">Mes dossiers</text>
    <text x="28" y="460" font-size="13.5" fill="#9a9ab8">Commissions</text>

    <circle cx="36" cy="848" r="14" fill="#4646f0"/>
    <text x="36" y="853" text-anchor="middle" font-size="12" font-weight="700" fill="#ffffff">LB</text>
    <text x="60" y="845" font-size="12.5" font-weight="600" fill="#ffffff">L. Bertrand</text>
    <text x="60" y="861" font-size="11" fill="#9a9ab8">Cabinet LB Patrimoine</text>

    <!-- En-tête contenu -->
    <text x="260" y="106" font-size="24" font-weight="700" fill="#141414">Tableau de bord</text>
    <rect x="940" y="76" width="220" height="40" rx="8" fill="#ffffff" stroke="#e7e7ef"/>
    <text x="960" y="101" font-size="13" fill="#8b8b9e">Rechercher…</text>
    <rect x="1180" y="76" width="200" height="40" rx="8" fill="#4646f0"/>
    <text x="1280" y="101" text-anchor="middle" font-size="13.5" font-weight="600" fill="#ffffff">+ Nouvelle souscription</text>

    <!-- Cartes KPI -->
    <g>
      <rect x="260" y="150" width="360" height="110" rx="12" fill="#ffffff" stroke="#e7e7ef"/>
      <text x="284" y="186" font-size="13" fill="#8b8b9e">Encours total</text>
      <text x="284" y="226" font-size="30" font-weight="800" fill="#141414">84,2 M€</text>
      <rect x="540" y="206" width="56" height="24" rx="12" fill="#ecfdf3"/>
      <text x="568" y="222" text-anchor="middle" font-size="12" font-weight="700" fill="#137a4b">+12 %</text>
    </g>
    <g>
      <rect x="640" y="150" width="360" height="110" rx="12" fill="#ffffff" stroke="#e7e7ef"/>
      <text x="664" y="186" font-size="13" fill="#8b8b9e">Souscriptions en cours</text>
      <text x="664" y="226" font-size="30" font-weight="800" fill="#141414">132</text>
      <rect x="920" y="206" width="56" height="24" rx="12" fill="#ecfdf3"/>
      <text x="948" y="222" text-anchor="middle" font-size="12" font-weight="700" fill="#137a4b">+8</text>
    </g>
    <g>
      <rect x="1020" y="150" width="360" height="110" rx="12" fill="#ffffff" stroke="#e7e7ef"/>
      <text x="1044" y="186" font-size="13" fill="#8b8b9e">Commissions du mois</text>
      <text x="1044" y="226" font-size="30" font-weight="800" fill="#141414">96 400 €</text>
      <rect x="1300" y="206" width="56" height="24" rx="12" fill="#ecfdf3"/>
      <text x="1328" y="222" text-anchor="middle" font-size="12" font-weight="700" fill="#137a4b">+5 %</text>
    </g>

    <!-- Graphique collecte -->
    <rect x="260" y="290" width="740" height="300" rx="12" fill="#ffffff" stroke="#e7e7ef"/>
    <text x="284" y="326" font-size="15" font-weight="700" fill="#141414">Collecte mensuelle</text>
    <line x1="284" y1="380" x2="976" y2="380" stroke="#f0f0f6"/>
    <line x1="284" y1="430" x2="976" y2="430" stroke="#f0f0f6"/>
    <line x1="284" y1="480" x2="976" y2="480" stroke="#f0f0f6"/>
    <line x1="284" y1="530" x2="976" y2="530" stroke="#f0f0f6"/>
    <polygon points="284,520 360,505 436,512 512,480 588,488 664,450 740,458 816,420 892,400 976,365 976,560 284,560" fill="url(#chartFill)"/>
    <polyline points="284,520 360,505 436,512 512,480 588,488 664,450 740,458 816,420 892,400 976,365" stroke="#4646f0" stroke-width="3" stroke-linecap="round" stroke-linejoin="round"/>
    <circle cx="976" cy="365" r="6" fill="#4646f0"/>
    <circle cx="976" cy="365" r="10" fill="#4646f0" fill-opacity="0.2"/>
    <text x="284" y="580" font-size="11" fill="#b6b6c6">Jan</text>
    <text x="436" y="580" font-size="11" fill="#b6b6c6">Mar</text>
    <text x="588" y="580" font-size="11" fill="#b6b6c6">Mai</text>
    <text x="740" y="580" font-size="11" fill="#b6b6c6">Juil</text>
    <text x="892" y="580" font-size="11" fill="#b6b6c6">Sep</text>

    <!-- Répartition par classe d'actifs -->
    <rect x="1020" y="290" width="360" height="300" rx="12" fill="#ffffff" stroke="#e7e7ef"/>
    <text x="1044" y="326" font-size="15" font-weight="700" fill="#141414">Répartition par classe d'actifs</text>
    <!-- Donut : circonférence r=70 -> 439.8 -->
    <g transform="rotate(-90 1130 460)">
      <circle cx="1130" cy="460" r="70" stroke="#4646f0" stroke-width="26" fill="none" stroke-dasharray="237.5 202.3"/>
      <circle cx="1130" cy="460" r="70" stroke="#5dc8ff" stroke-width="26" fill="none" stroke-dasharray="88 351.8" stroke-dashoffset="-237.5"/>
      <circle cx="1130" cy="460" r="70" stroke="#9d9dff" stroke-width="26" fill="none" stroke-dasharray="66 373.8" stroke-dashoffset="-325.5"/>
      <circle cx="1130" cy="460" r="70" stroke="#16163d" stroke-width="26" fill="none" stroke-dasharray="48.3 391.5" stroke-dashoffset="-391.5"/>
    </g>
    <text x="1130" y="455" text-anchor="middle" font-size="22" font-weight="800" fill="#141414">54 %</text>
    <text x="1130" y="475" text-anchor="middle" font-size="11" fill="#8b8b9e">SCPI</text>
    <g font-size="12" fill="#525252">
      <circle cx="1252" cy="395" r="5" fill="#4646f0"/><text x="1266" y="399">SCPI</text>
      <circle cx="1252" cy="425" r="5" fill="#5dc8ff"/><text x="1266" y="429">Assurance vie</text>
      <circle cx="1252" cy="455" r="5" fill="#9d9dff"/><text x="1266" y="459">Private Equity</text>
      <circle cx="1252" cy="485" r="5" fill="#16163d"/><text x="1266" y="489">GFI / GFV</text>
    </g>

    <!-- Tableau dernières souscriptions -->
    <rect x="260" y="620" width="1120" height="246" rx="12" fill="#ffffff" stroke="#e7e7ef"/>
    <text x="284" y="656" font-size="15" font-weight="700" fill="#141414">Dernières souscriptions</text>
    <g font-size="11.5" fill="#8b8b9e" font-weight="600">
      <text x="284" y="690">CLIENT</text>
      <text x="560" y="690">PRODUIT</text>
      <text x="900" y="690">MONTANT</text>
      <text x="1120" y="690">STATUT</text>
    </g>
    <line x1="284" y1="702" x2="1356" y2="702" stroke="#f0f0f6"/>

    <g font-size="13" fill="#141414">
      <text x="284" y="730">M. et Mme Lefebvre</text>
      <text x="560" y="730">SCPI Iroko Zen</text>
      <text x="900" y="730">45 000 €</text>
      <rect x="1120" y="714" width="64" height="22" rx="11" fill="#ecfdf3"/>
      <text x="1152" y="729" text-anchor="middle" font-size="11.5" font-weight="700" fill="#137a4b">Validé</text>
      <line x1="284" y1="744" x2="1356" y2="744" stroke="#f0f0f6"/>

      <text x="284" y="772">Mme Garnier</text>
      <text x="560" y="772">Assurance vie — Cardif</text>
      <text x="900" y="772">120 000 €</text>
      <rect x="1120" y="756" width="74" height="22" rx="11" fill="#fff7e8"/>
      <text x="1157" y="771" text-anchor="middle" font-size="11.5" font-weight="700" fill="#b97a12">En cours</text>
      <line x1="284" y1="786" x2="1356" y2="786" stroke="#f0f0f6"/>

      <text x="284" y="814">M. Dubois</text>
      <text x="560" y="814">SCPI Remake Live — à crédit</text>
      <text x="900" y="814">80 000 €</text>
      <rect x="1120" y="798" width="72" height="22" rx="11" fill="#edf2ff"/>
      <text x="1156" y="813" text-anchor="middle" font-size="11.5" font-weight="700" fill="#4646f0">À signer</text>
      <line x1="284" y1="828" x2="1356" y2="828" stroke="#f0f0f6"/>

      <text x="284" y="856">SCI Horizon</text>
      <text x="560" y="856">GFI France Valley</text>
      <text x="900" y="856">60 000 €</text>
      <rect x="1120" y="840" width="64" height="22" rx="11" fill="#ecfdf3"/>
      <text x="1152" y="855" text-anchor="middle" font-size="11.5" font-weight="700" fill="#137a4b">Validé</text>
    </g>
  </g>
</svg>
