<svg width="186" height="25" viewBox="0 0 186 25" fill="none" xmlns="http://www.w3.org/2000/svg">
<mask id="mask0_1171_19048" style="mask-type:luminance" maskUnits="userSpaceOnUse" x="1" y="0" width="184" height="25">
<path d="M185 0.570312H1V24.0445H185V0.570312Z" fill="white"/>
</mask>
<g mask="url(#mask0_1171_19048)">
<path d="M65.9092 2.10547L62.1254 17.7791H62.0688L55.9637 2.10547H52.8971L46.8203 17.7791H46.7637L42.9516 2.10547H39.6113L44.5274 22.0496H48.1602L54.3879 6.52047H54.4445L60.6722 22.0496H64.3334L69.24 2.10547H65.9092Z" fill="#141414"/>
<path d="M77.3364 6.52051C72.4203 6.52051 68.9102 9.79781 68.9102 14.5559C68.9102 19.3139 72.2788 22.4739 77.4591 22.4739C80.7994 22.4739 83.3565 21.246 85.1116 18.7722L82.9036 17.12C81.5071 19.025 79.686 20.0001 77.4496 20.0001C75.9022 20.0001 74.6189 19.5757 73.5809 18.7451C72.543 17.9145 72.0051 16.8401 71.9768 15.4948H85.6777V14.5017C85.6777 9.94231 82.1676 6.52051 77.3364 6.52051ZM72.0334 13.2467C72.2127 10.8542 74.4207 9.00331 77.3647 9.00331C80.1011 9.00331 82.4224 10.8542 82.6016 13.2467H72.0334Z" fill="#141414"/>
<path d="M96.3595 6.52051C94.1892 6.52051 92.0755 7.28791 90.8488 8.63321H90.7923V6.95381H87.8105V22.0586H90.8772V13.653C90.8772 12.3168 91.3489 11.2334 92.3019 10.4027C93.2833 9.54501 94.5383 9.12071 96.0857 9.12071C98.9731 9.12071 100.822 10.8271 100.822 13.5898V22.0495H103.889V13.1023C103.889 9.20191 100.85 6.52051 96.3595 6.52051Z" fill="#141414"/>
<path d="M109.664 1.24805H106.295V4.32674H109.664V1.24805Z" fill="#141414"/>
<path d="M109.569 6.95312H106.502V22.0579H109.569V6.95312Z" fill="#141414"/>
<path d="M131.103 6.52051C128.867 6.52051 127.027 7.35111 125.715 8.85891H125.659C124.621 7.45941 122.507 6.52051 120.45 6.52051C118.393 6.52051 116.61 7.23371 115.506 8.46161H115.449V6.95381H112.59V22.0586H115.6V13.1113C115.6 10.7187 117.27 9.12071 119.742 9.12071C122.214 9.12071 123.856 10.7458 123.856 13.1113V22.0586H126.772V13.1113C126.772 10.7187 128.442 9.12071 130.914 9.12071C133.387 9.12071 134.991 10.6917 134.991 13.1113V22.0586H138.029V12.4251C138.029 9.00331 135.085 6.52951 131.122 6.52951L131.103 6.52051Z" fill="#141414"/>
<path d="M158.843 6.52051C156.607 6.52051 154.767 7.35111 153.455 8.85891H153.399C152.361 7.45941 150.238 6.52051 148.19 6.52051C146.143 6.52051 144.35 7.23371 143.246 8.46161H143.189V6.95381H140.33V22.0586H143.34V13.1113C143.34 10.7187 145.01 9.12071 147.482 9.12071C149.955 9.12071 151.597 10.7458 151.597 13.1113V22.0586H154.512V13.1113C154.512 10.7187 156.182 9.12071 158.655 9.12071C161.127 9.12071 162.731 10.6917 162.731 13.1113V22.0586H165.769V12.4251C165.769 9.00331 162.825 6.52951 158.862 6.52951L158.843 6.52051Z" fill="#141414"/>
<path d="M176.092 6.51991C171.12 6.51991 167.43 9.96881 167.43 14.5011C167.43 19.0335 171.12 22.4823 176.092 22.4823C181.037 22.5636 184.877 18.9793 184.783 14.5011C184.868 10.032 181.027 6.43861 176.092 6.51991ZM176.092 19.8821C172.818 19.8821 170.497 17.7153 170.497 14.5011C170.497 11.287 172.818 9.12011 176.092 9.12011C179.367 9.12011 181.716 11.287 181.716 14.5011C181.716 17.7153 179.395 19.8821 176.092 19.8821Z" fill="#141414"/>
<path d="M15.4179 6.80001V4.58801L29.6283 10.4926V6.49301L15.4179 0.570312L1.2168 6.49301V10.3482V10.4926V12.7227V16.5598V16.7223L15.4179 10.8177V10.6552V6.80001Z" fill="#141414"/>
<path d="M29.6283 23.5837V16.7401L15.4179 10.8174V13.9052L1.2168 19.8279V23.5837L15.4179 17.6791L29.6283 23.5837Z" fill="#141414"/>
</g>
</svg>
