<svg width="595" height="1198" viewBox="0 0 595 1198" fill="none" xmlns="http://www.w3.org/2000/svg">
<path d="M693.73 509.84V661.197L9.08074 355.034C3.86067 352.699 0.5 347.515 0.5 341.797V15.9122C0.5 5.41197 11.3139 -1.60685 20.9042 2.66871L687.917 300.036C691.935 301.827 696.526 301.827 700.543 300.034L1367.09 2.67641C1376.68 -1.60214 1387.5 5.41665 1387.5 15.9184V179.95C1387.5 185.667 1384.14 190.85 1378.92 193.185L702.899 495.692C697.321 498.188 693.73 503.729 693.73 509.84ZM694.73 662.293L1367.09 362.342C1376.68 358.063 1387.5 365.082 1387.5 375.584V878.931C1387.5 884.648 1384.14 889.831 1378.92 892.167L700.151 1195.9C696.384 1197.59 692.077 1197.59 688.309 1195.9L9.08074 892.165C3.86067 889.831 0.5 884.647 0.5 878.929V702.116C0.5 691.615 11.3139 684.597 20.9042 688.872L672.919 979.553C683.171 984.124 694.73 976.621 694.73 965.396V662.74V662.293Z" stroke="white"/>
</svg>
