<?xml version="1.0" encoding="UTF-8"?> <svg xmlns="http://www.w3.org/2000/svg" id="Calque_1" data-name="Calque 1" viewBox="0 0 341.42 81.68"><defs><style> .cls-1 { fill: #706f6f; stroke-width: 0px; } </style></defs><path class="cls-1" d="m.42,52.93c3.72-.48,3.75-1.36,3.85-4.42v-10.44c-.09-3.05-.12-3.94-3.85-4.41v-.45h10.43v.45c-3.72.47-3.85,1.36-3.85,4.41v9.72c0,1.48,0,3.06.47,4.48l3.79.27c4.71.32,5.49-1.07,7.88-4.86l.4.18-1.77,5.51H.42v-.45Z"></path><path class="cls-1" d="m20.27,52.93c3.72-.48,3.75-1.36,3.84-4.42v-10.44c-.09-3.05-.12-3.94-3.84-4.41v-.45h16.65l-.37,4.56h-.46c-.22-3.82-3.1-3.85-6.24-3.85h-3.01v8.45h3.22c2.33,0,4.09-.18,4.44-2.73h.46v6.61h-.46c-.4-2.6-2.11-2.64-4.44-2.64h-3.22v4.86c0,1.75-.43,4.18,4.65,4.18,3.91,0,5.83-1.42,6.61-5.16h.46c-.03,2.25-.44,4.09-1.06,5.87h-17.24v-.45Z"></path><path class="cls-1" d="m112.76,43.65c0,4.59,2.54,10.46,8.13,10.46,5.12,0,7.38-4.98,7.38-9.22-.09-5.25-3.29-10.23-8.03-10.23-5.33,0-7.47,4.98-7.47,8.98m19.11.74c0,6.37-4.84,10.44-11.35,10.44s-11.35-4.06-11.35-10.47,4.84-10.4,11.32-10.4c7.94,0,11.39,5.16,11.39,10.43"></path><path class="cls-1" d="m152.91,49.82l-.15-10.82c-.03-2.82-.84-3.65-4.34-4.24v-.45h8.47v.45c-2.14.27-2.54,1.39-2.79,3.32-.44,3.26-.28,10.4-.12,16.87l-.4.09c-4.96-5.6-10.48-10.79-15.73-16.19v5.45c0,7.35-.19,8.86,4.31,9.73v.44h-9.27v-.44c4.19-.42,4.03-3.15,4.03-9.87v-4.45c0-2.97-.5-4.12-4.44-4.95v-.45h5.12l15.32,15.5Z"></path><path class="cls-1" d="m170.59,39.53h-.5c-.5-2.4-1.3-4.71-4.37-4.71-1.99,0-3.63,1.3-3.63,3.26,0,5.12,9.77,4.95,9.77,10.94,0,3.82-3.97,5.81-7.54,5.81-1.89,0-3.88-.53-5.46-1.51l-.9-5.04h.55c.78,2.84,2.85,5.66,6.27,5.66,2.29,0,4.09-1.3,4.09-3.61,0-5.28-9.49-4.8-9.49-10.73,0-3.47,3.6-5.66,6.92-5.66,1.58,0,3.16.44,4.53,1.16l-.25,4.45Z"></path><path class="cls-1" d="m174.18,54.03c3.72-.48,3.75-1.36,3.85-4.42v-10.43c-.09-3.05-.12-3.94-3.85-4.42v-.45h16.66l-.37,4.57h-.47c-.22-3.82-3.1-3.85-6.24-3.85h-3.01v8.45h3.23c2.33,0,4.09-.18,4.43-2.73h.46v6.61h-.46c-.41-2.61-2.11-2.64-4.43-2.64h-3.23v4.86c0,1.75-.43,4.18,4.65,4.18,3.91,0,5.83-1.42,6.61-5.16h.46c-.03,2.25-.44,4.09-1.06,5.87h-17.24v-.44Z"></path><path class="cls-1" d="m201.07,44.34c2.97-.03,6.45-1.34,6.45-4.62,0-3.47-3.2-4.86-6.45-4.83v9.46Zm-2.73-3.91c0-4.54-.15-5.22-3.63-5.51v-.41l7.57-.24c7.82-.24,8.44,3.41,8.44,4.83,0,2.49-1.61,3.91-3.84,4.86l.15.21c2.39,4,5.37,9.1,10.48,10.11l-.09.45c-3.29-.15-5.71-.06-7.51-1.84-2.05-2.05-3.66-4.65-4.31-5.93-1.24-2.46-2.36-1.75-4.53-2.1v4.77c0,3.26.06,3.85,4.31,4.42v.44h-10.89v-.44c3.72-.48,3.75-1.37,3.84-4.42v-9.19Z"></path><path class="cls-1" d="m235.91,34.32v.45c-2.92.24-3.82,2.58-5.74,6.88l-5.93,13.52h-.43l-7.01-16.04c-.93-2.17-1.64-4.06-4.41-4.36v-.45h9.84v.45c-4.38.41-2.95,2.78-2.14,4.65l4.96,11.44,3.66-8.39c2.66-6.08,3.16-7.05-1.55-7.71v-.45h8.75Z"></path><path class="cls-1" d="m240.12,36.96l-2.92,7.7h6.14l-3.23-7.7Zm-3.45,9.07c-.53,1.48-1.89,4.56-1.89,5.98,0,1.81,2.14,1.81,3.54,2.02v.44h-8.5v-.44c2.76-.71,3.04-1.3,4-3.62l3.5-8.74,1.87-4.83c.27-.77.68-1.48.34-2.04.84-.32,1.61-.86,2.26-1.6l6.83,17.37c.84,2.16,1.37,3.02,3.85,3.47v.44h-9.12v-.44c1.08-.24,2.39-.56,2.39-1.9,0-1.24-1.18-4.03-1.99-6.1h-7.07Z"></path><path class="cls-1" d="m269.91,33.4h.25l.43,5.54-.43.09c-1.09-3.68-2.79-3.82-6.36-3.82h-1.86v13.69c0,3.68.19,4.65,4.34,5.13v.44h-11.41v-.44c4.16-.48,4.34-1.45,4.34-5.13v-13.69h-1.86c-3.57,0-5.27.15-6.36,3.82l-.43-.09.43-5.54h.25l.31.27c.78.68.9.65,1.92.65h14.21c1.02,0,1.15.03,1.92-.65l.31-.27Z"></path><path class="cls-1" d="m272.21,54.03c3.72-.48,3.75-1.36,3.84-4.42v-10.43c-.09-3.05-.12-3.94-3.84-4.42v-.45h16.65l-.37,4.57h-.46c-.21-3.82-3.1-3.85-6.23-3.85h-3.01v8.45h3.23c2.33,0,4.09-.18,4.43-2.73h.47v6.61h-.47c-.4-2.61-2.11-2.64-4.43-2.64h-3.23v4.86c0,1.75-.43,4.18,4.65,4.18,3.91,0,5.83-1.42,6.61-5.16h.46c-.03,2.25-.43,4.09-1.06,5.87h-17.24v-.44Z"></path><path class="cls-1" d="m316.05,34.32v.45c-2.82.29-3.01,1.95-3.13,5.87l-.18,6.49c-.1,3.82-1.8,7.71-8.69,7.71-9.61,0-8.62-6.64-8.62-9.01v-6.64c-.09-3.05-.12-3.95-3.84-4.42v-.45h10.7v.45c-4.06.56-4.13,1.15-4.13,4.42v6.07c0,.57-.99,8.21,7.51,8.21,6.7,0,6.05-6.1,6.05-9.72v-3.11c0-3.77-.31-5.48-4.66-5.87v-.45h8.99Z"></path><path class="cls-1" d="m324.26,44.34c2.98-.03,6.45-1.34,6.45-4.62,0-3.47-3.19-4.86-6.45-4.83v9.46Zm-2.73-3.91c0-4.54-.15-5.22-3.63-5.51v-.41l7.57-.24c7.82-.24,8.44,3.41,8.44,4.83,0,2.49-1.61,3.91-3.84,4.86l.16.21c2.39,4,5.37,9.1,10.48,10.11l-.09.45c-3.29-.15-5.71-.06-7.51-1.84-2.05-2.05-3.66-4.65-4.31-5.93-1.24-2.46-2.36-1.75-4.53-2.1v4.77c0,3.26.06,3.85,4.32,4.42v.44h-10.89v-.44c3.72-.48,3.76-1.37,3.85-4.42v-9.19Z"></path><polygon class="cls-1" points="240.91 61.96 240.43 61.96 241.22 59.9 242.26 59.9 240.91 61.96"></polygon><polygon class="cls-1" points="136.93 67 136.93 60.39 140.67 60.39 140.67 61.09 137.67 61.09 137.67 63.15 140.45 63.15 140.45 63.86 137.67 63.86 137.67 66.31 140.67 66.31 140.67 67 136.93 67"></polygon><polygon class="cls-1" points="145.95 67 144.59 64.39 143.24 67 142.39 67 144.17 63.68 142.4 60.39 143.23 60.39 144.58 62.99 145.96 60.39 146.79 60.39 145 63.67 146.81 67 145.95 67"></polygon><path class="cls-1" d="m151.99,62.16c0-.94-.74-1.07-1.15-1.07h-1.28v2.6h1.3c.41,0,1.13-.14,1.13-1.08v-.46Zm-1.09,2.24h-1.34v2.61h-.75v-6.62h2.05c1.57,0,1.86,1.19,1.86,1.75v.48c0,.58-.3,1.77-1.83,1.77"></path><polygon class="cls-1" points="154.92 67 154.92 60.39 158.66 60.39 158.66 61.09 155.65 61.09 155.65 63.15 158.43 63.15 158.43 63.86 155.65 63.86 155.65 66.31 158.66 66.31 158.66 67 154.92 67"></polygon><path class="cls-1" d="m164.07,62.16c0-.94-.74-1.07-1.15-1.07h-1.28v2.42h1.3c.41,0,1.13-.15,1.13-1.08v-.28Zm.07,4.84l-1.36-2.79h-1.13v2.79h-.75v-6.62h2.05c1.56,0,1.88,1.18,1.88,1.74v.32c0,.49-.24,1.41-1.25,1.7l1.41,2.86h-.84Z"></path><polygon class="cls-1" points="169.15 61.1 169.15 67 168.41 67 168.41 61.1 166.71 61.1 166.71 60.39 170.85 60.39 170.85 61.1 169.15 61.1"></polygon><polygon class="cls-1" points="175.96 67 175.96 60.39 179.7 60.39 179.7 61.09 176.7 61.09 176.7 63.15 179.48 63.15 179.48 63.86 176.7 63.86 176.7 66.31 179.7 66.31 179.7 67 175.96 67"></polygon><polygon class="cls-1" points="185 67 182.69 61.81 182.69 67 181.94 67 181.94 60.39 182.82 60.39 185.16 65.66 185.16 60.39 185.9 60.39 185.9 67 185 67"></polygon><path class="cls-1" d="m193.39,67.09c-1.53,0-1.95-1.2-1.95-1.78v-3.23c0-.57.4-1.74,1.97-1.74s1.95,1.12,1.95,1.75h-.75c0-.91-.82-1.05-1.2-1.05s-1.23.14-1.23,1.06v3.21c0,.93.83,1.07,1.23,1.07s1.2-.13,1.2-1.07v-1.25h-1.43v-.7h2.18v1.96c0,.59-.43,1.77-1.97,1.77"></path><polygon class="cls-1" points="197.79 67 197.79 60.39 201.53 60.39 201.53 61.09 198.53 61.09 198.53 63.15 201.31 63.15 201.31 63.86 198.53 63.86 198.53 66.31 201.53 66.31 201.53 67 197.79 67"></polygon><path class="cls-1" d="m205.5,67.1c-1.22,0-2.01-.78-2.01-1.75h.73c0,.66.54,1.05,1.27,1.05.82,0,1.35-.46,1.35-1.1,0-.49-.29-.81-.68-1.03-.51-.29-1.05-.52-1.64-.82-.53-.28-.92-.81-.92-1.45,0-.97.79-1.67,1.91-1.67s1.97.73,1.97,1.75h-.75c0-.68-.52-1.05-1.22-1.05-.65,0-1.16.35-1.16.99,0,.37.21.67.61.86.63.3,1.06.5,1.55.76.69.36,1.07.95,1.07,1.68,0,1.02-.91,1.78-2.08,1.78"></path><polygon class="cls-1" points="211.74 61.1 211.74 67 210.99 67 210.99 61.1 209.3 61.1 209.3 60.39 213.43 60.39 213.43 61.1 211.74 61.1"></polygon><rect class="cls-1" x="215.43" y="60.39" width=".75" height="6.62"></rect><path class="cls-1" d="m221.78,62.09c0-.93-.82-1.07-1.21-1.07s-1.23.14-1.23,1.07v3.21c0,.93.83,1.08,1.23,1.08s1.21-.14,1.21-1.08v-3.21Zm-1.22,5c-1.53,0-1.95-1.2-1.95-1.78v-3.23c0-.57.4-1.74,1.97-1.74s1.95,1.18,1.95,1.75v3.23c0,.59-.41,1.77-1.96,1.77"></path><polygon class="cls-1" points="228.02 67 225.71 61.81 225.71 67 224.96 67 224.96 60.39 225.85 60.39 228.18 65.66 228.18 60.39 228.92 60.39 228.92 67 228.02 67"></polygon><path class="cls-1" d="m237.74,62.16c0-.94-.72-1.08-1.13-1.08h-1.3v5.23h1.32c.41,0,1.11-.16,1.11-1.09v-3.06Zm-1.09,4.84h-2.09v-6.63h2.05c1.56,0,1.86,1.19,1.86,1.75v3.1c0,.57-.3,1.77-1.83,1.77"></path><path class="cls-1" d="m246.18,61.05h-.13l-.92,3.39h1.97l-.92-3.39Zm1.62,5.96l-.51-1.86h-2.34l-.53,1.86h-.74l1.81-6.62h1.22l1.84,6.62h-.74Z"></path><polygon class="cls-1" points="254.54 60.39 252.82 67 251.6 67 249.86 60.39 250.6 60.39 252.14 66.33 252.27 66.33 253.8 60.39 254.54 60.39"></polygon><polygon class="cls-1" points="256.54 67 256.54 60.39 260.28 60.39 260.28 61.09 257.28 61.09 257.28 63.15 260.06 63.15 260.06 63.86 257.28 63.86 257.28 66.31 260.28 66.31 260.28 67 256.54 67"></polygon><polygon class="cls-1" points="265.58 67 263.27 61.81 263.27 67 262.52 67 262.52 60.39 263.4 60.39 265.74 65.66 265.74 60.39 266.48 60.39 266.48 67 265.58 67"></polygon><rect class="cls-1" x="269.01" y="60.39" width=".75" height="6.62"></rect><path class="cls-1" d="m275.46,62.16c0-.94-.74-1.07-1.14-1.07h-1.28v2.42h1.3c.41,0,1.12-.15,1.12-1.08v-.28Zm.07,4.84l-1.36-2.79h-1.13v2.79h-.75v-6.62h2.05c1.56,0,1.88,1.18,1.88,1.74v.32c0,.49-.23,1.41-1.26,1.7l1.42,2.86h-.85Z"></path><path class="cls-1" d="m284.92,62.16c0-.94-.72-1.08-1.13-1.08h-1.3v5.23h1.32c.41,0,1.11-.16,1.11-1.09v-3.06Zm-1.09,4.84h-2.09v-6.63h2.05c1.56,0,1.87,1.19,1.87,1.75v3.1c0,.57-.3,1.77-1.83,1.77"></path><polygon class="cls-1" points="288.09 67 288.09 60.39 291.83 60.39 291.83 61.09 288.83 61.09 288.83 63.15 291.61 63.15 291.61 63.86 288.83 63.86 288.83 66.31 291.83 66.31 291.83 67 288.09 67"></polygon><path class="cls-1" d="m297.25,62.16c0-.94-.74-1.07-1.14-1.07h-1.29v2.6h1.3c.41,0,1.13-.14,1.13-1.08v-.46Zm-1.09,2.24h-1.34v2.61h-.75v-6.62h2.05c1.57,0,1.86,1.19,1.86,1.75v.48c0,.58-.3,1.77-1.82,1.77"></path><path class="cls-1" d="m302.05,67.09c-1.58,0-1.98-1.16-1.98-1.78v-4.92h.75v4.92c0,.93.83,1.08,1.21,1.08s1.21-.14,1.21-1.08v-4.92h.75v4.93c0,.62-.39,1.77-1.95,1.77"></path><rect class="cls-1" x="306.43" y="60.39" width=".75" height="6.62"></rect><path class="cls-1" d="m311.44,67.1c-1.22,0-2.01-.78-2.01-1.75h.74c0,.66.54,1.05,1.27,1.05.82,0,1.35-.46,1.35-1.1,0-.49-.29-.81-.68-1.03-.51-.29-1.05-.52-1.63-.82-.54-.28-.93-.81-.93-1.45,0-.97.79-1.67,1.91-1.67s1.97.73,1.97,1.75h-.75c0-.68-.52-1.05-1.22-1.05-.65,0-1.17.35-1.17.99,0,.37.21.67.61.86.63.3,1.06.5,1.55.76.69.36,1.07.95,1.07,1.68,0,1.02-.91,1.78-2.08,1.78"></path><polygon class="cls-1" points="318.87 67 318.87 66.31 320.26 66.31 320.26 61.12 319.24 61.19 319.24 60.51 321.01 60.38 321.01 66.31 322.46 66.31 322.46 67 318.87 67"></polygon><path class="cls-1" d="m326.69,61.03c-.38,0-1.21.16-1.21,1.11,0,.71.51,1.12,1.21,1.12s1.21-.43,1.21-1.12c0-.95-.83-1.11-1.21-1.11m0,2.93c-.72,0-1.27.45-1.27,1.21,0,1.04.86,1.22,1.27,1.22s1.28-.17,1.28-1.22c0-.77-.58-1.21-1.28-1.21m0,3.13c-1.58,0-2.02-1.23-2.02-1.92,0-.47.19-1.17.89-1.56-.54-.37-.83-.95-.83-1.47,0-.7.39-1.81,1.95-1.81s1.96,1.11,1.96,1.81c0,.48-.28,1.11-.89,1.47.7.39.96,1.09.96,1.55,0,.69-.4,1.92-2.03,1.92"></path><polygon class="cls-1" points="333.86 67 333.86 65.14 330.83 65.14 330.83 64.43 332.39 60.39 333.13 60.39 331.58 64.44 333.86 64.44 333.86 61.99 334.61 61.99 334.61 67 333.86 67"></polygon><polygon class="cls-1" points="339.9 67 339.9 65.14 336.87 65.14 336.87 64.43 338.43 60.39 339.17 60.39 337.61 64.44 339.9 64.44 339.9 61.99 340.65 61.99 340.65 67 339.9 67"></polygon><g><polygon class="cls-1" points="118.43 16.78 123.96 10.46 122.78 9.48 117.25 15.8 118.43 16.78"></polygon><polygon class="cls-1" points="115.98 14.84 120.87 8.03 119.6 7.16 114.72 13.98 115.98 14.84"></polygon><polygon class="cls-1" points="113.36 13.14 117.49 6.02 117.55 5.9 116.21 5.16 112.01 12.4 113.36 13.14"></polygon><polygon class="cls-1" points="110.58 11.69 114.05 4.09 112.63 3.48 109.17 11.07 110.58 11.69"></polygon><polygon class="cls-1" points="107.67 10.51 110.38 2.62 108.91 2.14 106.2 10.03 107.67 10.51"></polygon><polygon class="cls-1" points="106.55 1.63 106.58 1.5 105.07 1.16 103.18 9.13 103.15 9.26 104.66 9.6 106.55 1.63"></polygon><polygon class="cls-1" points="101.15 .54 100.04 8.79 101.57 8.98 102.69 .74 101.15 .54"></polygon><polygon class="cls-1" points="97.2 .29 96.89 8.61 98.44 8.66 98.74 .34 97.2 .29"></polygon><polygon class="cls-1" points="93.23 .42 93.74 8.58 93.75 8.72 95.29 8.62 94.77 .32 93.23 .42"></polygon><polygon class="cls-1" points="92.15 8.89 90.82 .67 89.29 .91 90.62 9.12 92.15 8.89"></polygon><polygon class="cls-1" points="87.56 9.82 89.05 9.44 86.95 1.52 86.92 1.39 85.42 1.77 87.52 9.69 87.56 9.82"></polygon><polygon class="cls-1" points="86.02 10.28 83.11 2.47 81.66 2.99 84.57 10.8 86.02 10.28"></polygon><polygon class="cls-1" points="83.09 11.41 79.42 3.9 78.03 4.55 81.69 12.05 83.09 11.41"></polygon><polygon class="cls-1" points="78.95 13.58 80.28 12.8 75.89 5.67 74.57 6.45 78.88 13.46 78.95 13.58"></polygon><polygon class="cls-1" points="77.62 14.45 72.55 7.76 71.31 8.66 76.37 15.34 77.62 14.45"></polygon><polygon class="cls-1" points="73.98 17.35 75.13 16.34 69.52 10.25 69.44 10.16 68.28 11.17 73.89 17.25 73.98 17.35"></polygon><polygon class="cls-1" points="71.8 19.56 72.85 18.45 66.66 12.92 66.57 12.83 65.52 13.95 71.7 19.48 71.8 19.56"></polygon><polygon class="cls-1" points="70.77 20.77 64.08 15.84 63.97 15.77 63.04 16.97 69.84 21.98 70.77 20.77"></polygon><polygon class="cls-1" points="68.13 24.56 68.94 23.27 61.79 18.99 61.68 18.93 60.87 20.22 68.01 24.49 68.13 24.56"></polygon><polygon class="cls-1" points="66.68 27.29 67.36 25.93 59.71 22.29 59.02 23.65 66.56 27.24 66.68 27.29"></polygon><polygon class="cls-1" points="66.05 28.73 58.07 25.82 57.53 27.24 65.5 30.15 66.05 28.73"></polygon><polygon class="cls-1" points="65.01 31.63 56.79 29.48 56.39 30.95 64.61 33.1 65.01 31.63"></polygon><polygon class="cls-1" points="64.01 36.12 64.27 34.62 56.01 33.27 55.88 33.25 55.62 34.75 63.88 36.1 64.01 36.12"></polygon><polygon class="cls-1" points="63.72 39.18 63.83 37.67 55.47 37.1 55.34 37.09 55.23 38.6 63.59 39.17 63.72 39.18"></polygon><polygon class="cls-1" points="63.72 42.26 63.69 40.74 55.18 40.96 55.22 42.48 63.59 42.26 63.72 42.26"></polygon><polygon class="cls-1" points="63.84 43.82 55.53 44.81 55.4 44.83 55.59 46.34 64.03 45.32 63.84 43.82"></polygon><polygon class="cls-1" points="64.64 48.34 64.3 46.86 56.13 48.63 55.99 48.66 56.33 50.14 64.51 48.37 64.64 48.34"></polygon><polygon class="cls-1" points="65.06 49.85 57.09 52.37 56.96 52.41 57.45 53.86 65.54 51.29 65.06 49.85"></polygon><polygon class="cls-1" points="66.11 52.75 58.3 56.06 58.92 57.45 66.72 54.14 66.11 52.75"></polygon><polygon class="cls-1" points="67.43 55.54 60.11 59.5 59.99 59.57 60.74 60.9 68.18 56.87 67.43 55.54"></polygon><polygon class="cls-1" points="69.03 58.19 62.01 62.9 62.89 64.15 69.9 59.44 69.03 58.19"></polygon><polygon class="cls-1" points="70.87 60.69 64.35 66.03 65.35 67.19 71.87 61.85 70.87 60.69"></polygon><polygon class="cls-1" points="74.06 64.06 72.96 62.99 66.99 68.93 68.1 69.99 73.97 64.15 74.06 64.06"></polygon><polygon class="cls-1" points="75.26 65.1 69.9 71.56 71.11 72.51 76.46 66.06 75.26 65.1"></polygon><polygon class="cls-1" points="77.76 66.97 73.13 73.8 73.05 73.91 74.35 74.74 79.05 67.81 77.76 66.97"></polygon><polygon class="cls-1" points="80.43 68.61 76.43 75.96 77.8 76.66 81.79 69.32 80.43 68.61"></polygon><polygon class="cls-1" points="84.67 70.57 83.24 69.98 79.98 77.67 81.42 78.25 84.62 70.69 84.67 70.57"></polygon><polygon class="cls-1" points="87.66 71.54 86.18 71.09 83.69 79.05 85.17 79.49 87.62 71.67 87.66 71.54"></polygon><polygon class="cls-1" points="87.52 80.08 89.04 80.37 90.73 72.23 89.22 71.92 87.52 80.08"></polygon><polygon class="cls-1" points="91.44 80.6 91.43 80.73 92.97 80.89 93.86 72.62 92.32 72.46 91.44 80.6"></polygon><polygon class="cls-1" points="95.38 81.03 96.93 81.04 97.01 72.73 95.46 72.71 95.38 81.03"></polygon><polygon class="cls-1" points="98.61 72.66 99.35 80.95 100.9 80.81 100.15 72.53 98.61 72.66"></polygon><polygon class="cls-1" points="103.26 72.04 101.74 72.32 103.27 80.37 103.29 80.5 104.82 80.22 103.28 72.17 103.26 72.04"></polygon><polygon class="cls-1" points="106.31 71.27 104.82 71.68 107.17 79.68 108.66 79.26 106.35 71.4 106.31 71.27"></polygon><polygon class="cls-1" points="107.83 70.77 110.95 78.51 112.39 77.95 109.27 70.21 107.83 70.77"></polygon><polygon class="cls-1" points="112.11 68.88 110.73 69.57 114.6 76.98 115.98 76.29 112.17 69 112.11 68.88"></polygon><polygon class="cls-1" points="113.5 68.1 118.08 75.12 119.39 74.3 114.81 67.29 113.5 68.1"></polygon><polygon class="cls-1" points="116.12 66.39 121.36 72.94 122.58 72.01 117.34 65.46 116.12 66.39"></polygon><polygon class="cls-1" points="118.55 64.44 124.41 70.47 125.54 69.43 119.68 63.39 118.55 64.44"></polygon><polygon class="cls-1" points="121.9 61.21 121.8 61.12 120.79 62.27 127.21 67.72 128.23 66.57 121.9 61.21"></polygon></g></svg> 