<svg xmlns="http://www.w3.org/2000/svg" width="417" height="101" fill="none"><path fill="#828283" d="M12.7 18.9V36h7.9c.9 0 1.7 0 2.4-.3.7-.2 1.2-.5 1.6-.9.4-.4.8-1.1 1.1-1.8.3-.7.5-1.7.6-2.9h1.2v14.7h-1.2c0-1.1-.1-2-.3-2.8-.2-.8-.5-1.4-.9-1.9s-1-.8-1.7-1.1c-.7-.2-1.6-.3-2.7-.3h-7.9v16.1c0 .6.1 1.2.2 1.6.1.4.3.7.5 1 .2.2.5.5.9.7.9.5 1.9.8 2.9.8h1.6v1.2H.3v-1.2h1.5c1.8 0 3.1-.5 3.9-1.6.5-.7.8-2.3.8-4.9V21.9c0-.6-.1-1.2-.2-1.6-.1-.4-.3-.7-.5-1-.2-.2-.5-.5-.9-.7-.9-.5-1.9-.8-2.9-.8H.5v-1.2h32.3v9.5h-.7c-.4-1.6-.9-2.8-1.4-3.7-.5-.9-1.2-1.7-1.9-2.2-.8-.5-1.6-.8-2.7-1-1-.2-2.2-.2-3.6-.2h-9.6l-.2-.1Zm33.6 10.8v6.6c2.5-4.4 5-6.6 7.6-6.6 2.6 0 1.1 0 1.6.3.5.2.9.5 1.3.8a3.08 3.08 0 0 1 .4 4.5c-.6.6-1.2.9-2 .9s-.8-.1-1.2-.4c-.4-.2-.9-.5-1.3-.8-.4-.3-.8-.5-1.2-.8-.4-.2-.6-.4-.8-.4-.3 0-.6.1-.9.4-.3.2-.7.6-1.1 1-.4.4-.7 1-1.1 1.6-.4.6-.8 1.3-1.1 2v14c0 .9 0 1.7.2 2.4.1.7.3 1.3.7 1.8.4.5.9.9 1.6 1.1.7.3 1.6.4 2.7.4v1.2h-15v-1.2c.9 0 1.7 0 2.3-.2.6-.1 1.1-.4 1.4-.8.3-.4.6-.9.7-1.6.1-.7.2-1.7.2-2.8V41.7c0-3.5 0-5.5-.2-6.1-.3-1.3-1-1.9-2.1-1.9s-1.4.2-2.2.5l-.3-1.2 8.9-3.6h1.3l-.4.3Zm29.9 26c-3 2.3-4.9 3.7-5.7 4-1.1.5-2.4.8-3.7.8-1.3 0-1.9-.2-2.8-.5-.9-.4-1.6-.9-2.2-1.5-.6-.7-1.1-1.5-1.5-2.4-.4-.9-.5-2-.5-3.1s.1-1.6.3-2.3c.2-.7.6-1.4 1-2 .4-.6 1-1.2 1.7-1.8.7-.6 1.5-1.1 2.4-1.7 2.2-1.3 5.8-2.9 10.8-4.7v-1.2c0-1.5-.1-2.7-.4-3.7-.2-1-.6-1.8-1.1-2.4-.5-.6-1-1-1.7-1.2-.7-.2-1.5-.4-2.3-.4-.8 0-1.3.1-1.8.3-.5.2-1 .5-1.4.8-.4.3-.7.7-.9 1.2-.2.4-.3.9-.3 1.3v1.9c0 1-.2 1.7-.7 2.3-.5.5-1.2.8-2 .8s-1.4-.3-1.9-.8c-.5-.6-.8-1.3-.8-2.3 0-1 .2-1.8.7-2.7.5-.9 1.2-1.7 2.1-2.4.9-.7 2-1.3 3.4-1.7 1.3-.4 2.9-.6 4.6-.6 1.7 0 4.2.3 5.8 1 1.6.7 2.7 1.8 3.4 3.4.4.9.6 2.8.6 5.6V53c0 .9 0 1.4.1 1.8.1.6.3 1 .5 1.2.2.2.5.3.8.3h.6c.2 0 .4-.2.7-.4.3-.2.6-.5.9-.8l1.3-1.3v1.8c-2.4 3.2-4.7 4.8-6.8 4.8-2.1 0-1.9-.4-2.5-1.1-.6-.7-1-2-1-3.7l.3.1Zm0-2.1V42.4c-1.6.6-2.9 1.2-4 1.6-1 .4-1.8.8-2.3 1.1-1.7 1-2.9 1.9-3.6 3-.7 1-1.1 2.1-1.1 3.3 0 1.2.1 1.5.4 2.1.2.7.6 1.2 1 1.7s.9.9 1.5 1.1c.6.3 1.1.4 1.7.4 1.6 0 3.8-1.1 6.4-3.2v.1Zm21-17.7c3.4-4.1 6.7-6.2 9.8-6.2 3.1 0 2.1.2 3 .5.9.4 1.7 1 2.4 1.8.7.9 1.2 2 1.6 3.4.4 1.4.6 3.2.6 5.3v12.5c0 1.3 0 2.3.2 3 .1.7.4 1.3.7 1.6.3.4.8.6 1.4.7.6 0 1.3.1 2.2.1v1.2h-14.5v-1.2h.6c1 0 1.7 0 2.3-.3.5-.2 1-.5 1.2-.9.3-.4.5-1 .5-1.7s.1-1.6.1-2.7V41c0-2.7-.3-4.6-1-5.8-.7-1.2-1.9-1.8-3.5-1.8-2.5 0-5.1 1.4-7.6 4.2v15.5c0 1.9.1 3.2.4 3.7.1.3.3.6.5.8.2.2.4.4.7.6.3.1.7.2 1.2.3h2v1.2H87.5v-1.2h.6c.8 0 1.4 0 1.9-.3.5-.2.9-.5 1.2-.9.3-.4.5-1 .6-1.7.1-.7.2-1.6.2-2.6V42.1c0-3.5 0-5.6-.3-6.4-.1-.8-.4-1.3-.7-1.6-.3-.3-.8-.4-1.3-.4s-1.3.2-2.1.5l-.5-1.2 8.8-3.6h1.4v6.2l-.1.3Zm49.1 12.8c-.4 1.9-1 3.7-1.8 5.2s-1.8 2.8-2.8 3.8c-1 1-2.3 1.8-3.6 2.3-1.3.5-2.6.8-4 .8s-3.2-.4-4.7-1.1a13.1 13.1 0 0 1-6.7-8c-.7-1.9-1-4.1-1-6.4 0-2.3.4-4.4 1.1-6.3.7-1.9 1.8-3.5 3-4.9 1.3-1.4 2.8-2.4 4.4-3.2 1.7-.8 3.5-1.1 5.4-1.1 1.9 0 2.7.2 4 .6 1.2.4 2.2 1 3.1 1.7.9.7 1.6 1.4 2.1 2.3.5.8.8 1.7.8 2.5s-.3 1.5-.8 2-1.2.8-2.2.8c-1 0-.9 0-1.4-.2-.4-.1-.8-.3-1.1-.6-.3-.3-.6-.7-.8-1.2-.2-.5-.3-1.1-.4-1.9-.1-1.3-.5-2.2-1.3-2.9-.7-.7-1.8-1-3.1-1s-2.4.3-3.3.8c-1 .6-1.8 1.3-2.4 2.3-.7 1-1.2 2.1-1.5 3.4a17.06 17.06 0 0 0 .2 9c.4 1.6 1.1 3 1.9 4.2.8 1.2 1.8 2.2 3 3 1.2.7 2.5 1.1 4 1.1s1.7-.1 2.6-.3c.8-.2 1.6-.6 2.3-1.2.7-.6 1.5-1.3 2.2-2.3.7-1 1.4-2.2 2-3.7l.9.4-.1.1Zm9.1-7.1c0 2.2.3 4.1.9 5.9.6 1.8 1.4 3.2 2.3 4.4 1 1.2 2.1 2.1 3.4 2.8 1.3.6 2.6.9 4.1.9 1.5 0 3.6-.5 5-1.6s2.6-2.9 3.6-5.4l1 .6c-.2 1.4-.7 2.8-1.3 4.2-.7 1.4-1.5 2.6-2.5 3.7s-2.2 2-3.6 2.6c-1.4.6-2.9 1-4.5 1s-3.4-.4-4.9-1.1c-1.5-.7-2.9-1.7-4.1-3-1.2-1.3-2.1-2.9-2.8-4.8-.7-1.9-1-4-1-6.3s.3-4.8 1-6.8 1.6-3.6 2.9-5c1.2-1.4 2.6-2.4 4.3-3.1 1.7-.7 3.4-1.1 5.3-1.1s3.1.3 4.5.8c1.4.6 2.6 1.4 3.6 2.4s1.8 2.3 2.4 3.8c.6 1.5.8 3.1.8 4.9h-20.3l-.1.2Zm0-1.8H169c0-1.9-.3-3.2-.7-4-.5-1.2-1.3-2.1-2.4-2.8a6.18 6.18 0 0 0-5.8-.5c-.8.4-1.5.9-2.2 1.5-.7.7-1.2 1.5-1.6 2.4-.4 1-.7 2.1-.8 3.3l-.1.1Z"/><path fill="#245EBC" d="M176.6 73.8H.3v1.5h176.3v-1.5Z"/><path fill="url(#a)" d="M416.1 61.9V11.3c0-6.1-5.1-11-11.4-11H239.1c-14.6 0-27.8 8.4-33.8 21.4l-29.8 53.7h226.7c7.6 0 13.7-6 13.7-13.4l.2-.1Z"/><path fill="#fff" d="m239.5 23.6 9.4 27.7 9.4-27.9c.5-1.5.9-2.5 1.1-3.1.2-.6.6-1.1 1.2-1.6s1.3-.7 2.3-.7c1 0 1.4.2 2 .5a3.76 3.76 0 0 1 1.9 3.2c0 .6 0 .9-.2 1.3-.1.5-.3 1-.4 1.4-.2.5-.3.9-.5 1.4l-10 27c-.4 1-.7 2-1.1 2.9-.4.9-.8 1.7-1.2 2.5-.5.7-1.1 1.3-1.9 1.7-.8.5-1.7.7-2.9.7s-2.1-.2-2.9-.7c-.8-.4-1.4-1-1.9-1.7s-.9-1.5-1.3-2.5c-.4-.9-.7-1.9-1.1-2.9L231.6 26c-.2-.5-.3-1-.5-1.4-.2-.5-.3-1-.5-1.5-.1-.5-.2-1-.2-1.4 0-1 .4-1.8 1.2-2.6.8-.8 1.7-1.2 2.9-1.2s2.4.4 3 1.3c.6.9 1.2 2.3 1.8 4.2l.2.2Zm49.7 33c-1.9 1.4-3.7 2.5-5.4 3.3-1.7.8-3.7 1.1-5.9 1.1s-3.7-.4-5.2-1.2a9 9 0 0 1-3.5-3.2c-.8-1.3-1.2-2.8-1.2-4.3s.7-3.9 2-5.4c1.3-1.5 3.2-2.5 5.5-3 .5-.1 1.7-.4 3.6-.8 1.9-.4 3.6-.8 5-1.1 1.4-.3 2.9-.7 4.5-1.2 0-2-.5-3.5-1.2-4.5-.7-.9-2.2-1.4-4.5-1.4s-3.4.3-4.4.8c-1 .5-1.8 1.4-2.5 2.5s-1.2 1.8-1.5 2.2c-.3.3-.9.5-1.9.5-1 0-1.6-.3-2.2-.8-.6-.6-.9-1.3-.9-2.1 0-1.4.5-2.7 1.4-3.9 1-1.3 2.5-2.3 4.5-3.2 2-.8 4.6-1.2 7.6-1.2s6 .4 8 1.2c1.9.8 3.3 2.1 4.1 3.8.8 1.7 1.2 4 1.2 6.9v8.8c0 1.4.2 3 .7 4.5.5 1.6.7 2.6.7 3 0 .8-.4 1.5-1.1 2.2-.7.6-1.6 1-2.5 1-.9 0-1.6-.4-2.3-1.1-.8-.7-1.6-1.8-2.5-3.2l-.1-.2Zm-.5-11.2c-1.1.4-2.8.9-4.9 1.3-2.2.5-3.6.8-4.5 1-.8.2-1.6.6-2.4 1.3-.8.6-1.1 1.5-1.1 2.6s.4 2.2 1.3 3c.9.8 2 1.2 3.5 1.2s2.9-.3 4.2-1c1.3-.7 2.2-1.5 2.8-2.6.7-1.2 1-3.1 1-5.8v-1.1l.1.1ZM304 56.2V22.8c0-1.5.3-2.7 1-3.5.7-.8 1.6-1.2 2.8-1.2 1.2 0 2.1.4 2.8 1.2.7.8 1.1 2 1.1 3.5v33.4c0 1.6-.4 2.7-1.1 3.5-.7.8-1.7 1.2-2.8 1.2-1.1 0-2-.4-2.7-1.2-.7-.8-1.1-2-1.1-3.5Zm15.7 0V22.8c0-1.5.3-2.7 1-3.5.7-.8 1.6-1.2 2.8-1.2 1.2 0 2.1.4 2.8 1.2.7.8 1.1 2 1.1 3.5v33.4c0 1.6-.4 2.7-1.1 3.5-.7.8-1.7 1.2-2.8 1.2-1.1 0-2-.4-2.7-1.2-.7-.8-1.1-2-1.1-3.5Zm37.1-9.1h-15.1c0 1.7.4 3.3 1.1 4.6a7.9 7.9 0 0 0 2.7 3c1.1.7 2.4 1 3.8 1s1.8-.1 2.5-.3c.8-.2 1.5-.6 2.2-1 .7-.5 1.4-1 2-1.5.6-.5 1.4-1.2 2.3-2.1.4-.3 1-.5 1.7-.5s1.4.2 1.9.6c.5.4.7 1 .7 1.8s-.3 1.5-.8 2.4c-.5.9-1.4 1.8-2.5 2.7-1.1.9-2.5 1.6-4.1 2.1-1.7.6-3.6.8-5.7.8-4.9 0-8.8-1.4-11.5-4.2-2.7-2.8-4.1-6.6-4.1-11.5s.3-4.4 1-6.3c.7-1.9 1.7-3.6 3-5s2.9-2.5 4.8-3.2c1.9-.7 4-1.1 6.3-1.1s5.6.6 7.7 1.9c2.2 1.3 3.8 2.9 4.8 4.9 1.1 2 1.6 4.1 1.6 6.1s-.6 3.2-1.7 3.8c-1.1.6-2.7.9-4.7.9l.1.1Zm-15-4.3h14c-.2-2.6-.9-4.6-2.1-5.9-1.2-1.3-2.9-2-4.9-2-2 0-3.5.7-4.7 2-1.2 1.3-2 3.3-2.2 5.9h-.1Zm33.5 19.1.7-1.7-9.5-23.9c-.6-1.4-.9-2.4-.9-3a3.74 3.74 0 0 1 1.9-3.2c.6-.3 1.2-.5 1.8-.5 1.1 0 1.9.4 2.5 1.1.6.7 1.1 1.7 1.5 3l6.5 19 6.2-17.6c.5-1.4.9-2.5 1.3-3.4.4-.8.8-1.4 1.3-1.6.5-.2 1.1-.4 1.9-.4.8 0 1.1.2 1.7.5.5.3.9.7 1.2 1.3.3.5.4 1.1.4 1.7 0 .4-.2.9-.4 1.5l-.6 2-10 26.3c-.9 2.3-1.7 4.1-2.5 5.4-.8 1.3-1.9 2.3-3.3 3-1.4.7-3.2 1.1-5.5 1.1s-3.9-.2-5.1-.7c-1.2-.5-1.7-1.4-1.7-2.7 0-1.3.3-1.6.8-2 .5-.5 1.3-.7 2.4-.7 1.1 0 .8 0 1.2.2.5.1.9.2 1.3.2.9 0 1.6-.1 2.1-.4.5-.3 1-.7 1.4-1.4.4-.6.9-1.6 1.4-2.9v-.2Z"/><path fill="#245EBC" d="M4 100.5V87.1h1.9v13.4H4Zm23 0V87.1h1.9l6.7 10.3V87.1h1.6v13.4h-1.9l-6.8-10.3v10.3h-1.6.1Zm34.9 0-5.1-13.4h1.9l4.1 11 4-11h1.7l-4.9 13.4h-1.8.1Zm26.1 0V87.1h7.5v1.4h-5.6v4.3h4.7v1.4h-4.7V99h6v1.4H88v.1Zm26.8-.3v-1.9c1.5.7 2.8 1 3.7 1 .9 0 1.3-.2 1.8-.6.5-.4.7-.9.7-1.5s-.1-1-.4-1.3c-.3-.3-.8-.8-1.7-1.2l-.9-.5c-1.1-.7-1.9-1.3-2.4-1.8s-.7-1.2-.7-2a4 4 0 0 1 1.1-2.6c.7-.7 1.7-1 2.9-1s2.1.2 3.3.5V89c-1.4-.6-2.5-.8-3.2-.8-.7 0-1.2.2-1.6.5-.4.4-.6.8-.6 1.3s.2.8.5 1.2c.3.3.9.8 1.7 1.2l1 .5c1.2.7 2 1.3 2.4 1.9.5.6.7 1.3.7 2.1 0 1.2-.4 2.1-1.3 2.8-.9.7-2 1.1-3.4 1.1s-2.1-.2-3.5-.6h-.1Zm31.6.3v-12h-4.8v-1.4H153v1.4h-4.8v12h-1.9.1Zm26.1 0V87.1h1.9v13.4h-1.9Zm22.1-.3v-1.9c1.5.7 2.8 1 3.7 1 .9 0 1.3-.2 1.8-.6.5-.4.7-.9.7-1.5s-.1-1-.4-1.3c-.3-.4-.8-.8-1.7-1.2l-.9-.5c-1.1-.7-1.9-1.3-2.4-1.8-.5-.6-.7-1.2-.7-2a4 4 0 0 1 1.1-2.6c.7-.7 1.7-1 2.9-1s2.1.2 3.3.5V89c-1.4-.6-2.5-.8-3.2-.8-.7 0-1.2.2-1.6.5-.4.4-.6.8-.6 1.3s.2.8.5 1.2c.3.4.9.8 1.7 1.2l1 .5c1.2.7 2 1.3 2.4 1.9.5.6.7 1.3.7 2.1 0 1.2-.4 2.1-1.3 2.8-.9.7-2 1.1-3.4 1.1s-2.1-.2-3.5-.6h-.1Zm27.6 0v-1.9c1.5.7 2.8 1 3.7 1 .9 0 1.3-.2 1.8-.6.5-.4.7-.9.7-1.5s-.1-1-.4-1.3c-.3-.3-.8-.8-1.7-1.2l-.9-.5c-1.1-.7-1.9-1.3-2.4-1.8s-.7-1.2-.7-2a4 4 0 0 1 1.1-2.6c.7-.7 1.7-1 2.9-1s2.1.2 3.3.5V89c-1.4-.6-2.5-.8-3.2-.8-.7 0-1.2.2-1.6.5-.4.4-.6.8-.6 1.3s.2.8.5 1.2c.3.3.9.8 1.7 1.2l1 .5c1.2.7 2 1.3 2.4 1.9.5.6.7 1.3.7 2.1 0 1.2-.4 2.1-1.3 2.8-.9.7-2 1.1-3.4 1.1s-2.1-.2-3.5-.6h-.1Zm28.4.3V87.1h7.5v1.4h-5.6v4.3h4.7v1.4h-4.7V99h6v1.4h-7.9v.1Zm27.6 0V87.1h2.6l3.7 10.4 3.8-10.4h2.4v13.4h-1.8V89.6l-3.7 10h-1.8l-3.6-10v10.9h-1.6Zm33.5 0V87.1h7.5v1.4h-5.6v4.3h4.7v1.4h-4.7V99h6v1.4h-7.9v.1Zm27.7 0V87.1h1.9l6.7 10.3V87.1h1.6v13.4h-1.9l-6.8-10.3v10.3h-1.6.1Zm34.5 0v-12h-4.8v-1.4h11.4v1.4h-4.8v12h-1.9.1Zm25.3-.3v-1.9c1.5.7 2.8 1 3.7 1 .9 0 1.3-.2 1.8-.6.5-.4.7-.9.7-1.5s-.1-1-.4-1.3c-.3-.3-.8-.8-1.7-1.2l-.9-.5c-1.1-.7-1.9-1.3-2.4-1.8s-.7-1.2-.7-2a4 4 0 0 1 1.1-2.6c.7-.7 1.7-1 2.9-1s2.1.2 3.3.5V89c-1.4-.6-2.5-.8-3.2-.8-.7 0-1.2.2-1.6.5-.4.4-.6.8-.6 1.3s.2.8.5 1.2c.3.4.9.8 1.7 1.2l1 .5c1.2.7 2 1.3 2.4 1.9.5.6.7 1.3.7 2.1 0 1.2-.4 2.1-1.3 2.8-.9.7-2 1.1-3.4 1.1s-2.1-.2-3.5-.6h-.1Z"/><defs><linearGradient id="a" x1="248.6" x2="353.5" y1="-24.5" y2="122" gradientUnits="userSpaceOnUse"><stop stop-color="#36C"/><stop offset="1" stop-color="#039"/></linearGradient></defs></svg>