<svg xmlns="http://www.w3.org/2000/svg" width="936" height="367"><g fill="none" fill-rule="evenodd"><path fill="#FD7B3D" d="M937 22.527 923.828.001C762.579 43.519 624.7 164.709 779.294 221.627c-34.014 36.176-55.674 77.913-76.093 125.943l39.822 18.782c21.576-56.586 45.886-105.367 78.624-136.69 94.733 10.346 85.283-43.691 49.262-50.684-25.003-4.855-45.192 5.84-60.692 16.4C676.681 171.641 801.328 62.256 937 22.527"/><path fill="#181852" d="m640.864 150.03-35.527 74.282-33.811-74.282h-33.483l50.234 109.955-20.07 41.965h33.482l72.66-151.92zm-335.709 0v-7.792c0-4.938.512-10.969 3.349-14.452 9.47-11.626 28.303-4.603 32.515-3.368l.846-.647V98.62s-36.725-11.526-56.442 9.085c-6.536 6.83-10.882 17.709-10.882 34.532v7.791h-16.263v24.715h16.263v93.165h30.614v-93.165h67.08l-11.612 12.336v80.83h30.615V150.03z"/><path fill="#181852" d="M376.17 96.843c-5.584 0-10.164 1.636-13.753 4.9q-5.38 4.904-5.381 12.551c0 5.103 1.794 9.323 5.38 12.67 3.59 3.347 8.17 5.02 13.754 5.02q8.371 0 13.753-5.02c3.586-3.347 5.38-7.567 5.38-12.67q0-7.649-5.38-12.55-5.382-4.899-13.753-4.9M193.697 244.552c-18.014 0-32.62-15.946-32.62-35.62 0-19.67 14.606-35.618 32.62-35.618 18.015 0 32.62 15.948 32.62 35.619 0 19.673-14.605 35.619-32.62 35.619m0-97.772c-34.345 0-62.187 27.826-62.187 62.153s27.842 62.155 62.187 62.155 62.185-27.828 62.185-62.155-27.84-62.153-62.185-62.153m271.85 97.772c-18.015 0-32.62-15.946-32.62-35.62 0-19.67 14.605-35.618 32.62-35.618s32.619 15.948 32.619 35.619c0 19.673-14.605 35.619-32.62 35.619m31.958-84.603c-8.573-8.546-20.268-13.17-31.958-13.17-34.345 0-62.187 27.827-62.187 62.154s27.842 62.155 62.187 62.155c14.57 0 27.224-5.211 35.851-15.665l4.303 12.487h22.418V100.411h-30.614zM98.047 183.093c-6.72-3.749-14.24-7.072-22.373-9.886-7.59-2.472-14.445-4.836-20.371-7.02-5.85-2.154-10.527-4.838-13.899-7.98-3.317-3.088-4.997-7.34-4.997-12.64 0-6.205 2.18-11 6.48-14.243 4.386-3.307 9.82-4.888 16.24-4.703 7.47 0 13.377 2.196 17.562 6.524 3.926 4.067 6.106 8.79 6.475 14.037l.105 2.848h33.085l-.05-2.964c-.47-9.311-3.043-17.48-7.65-24.28-4.8-7.07-11.495-12.649-19.9-16.576-8.4-3.919-18.211-5.905-29.17-5.905-10.808 0-20.505 1.947-28.816 5.787-8.329 3.849-14.985 9.347-19.783 16.342-4.807 7.007-7.164 15.502-7.007 25.236.002 11.496 3.404 20.84 10.107 27.777 6.668 6.902 16.478 12.62 29.16 16.998l22.039 7.5c6.778 2.31 12.28 5.35 16.354 9.037 4.011 3.636 6.046 8.792 6.046 15.326 0 6.22-2.304 11.253-6.85 14.962-4.57 3.734-10.852 5.626-18.673 5.626-9.042 0-16.22-2.59-21.33-7.701-4.89-4.887-7.62-10.965-8.107-18.066l-.25-4.154H0l.028 4.246c.305 10.727 3.085 19.986 8.261 27.52 5.342 7.777 12.75 13.83 22.014 17.985 9.25 4.15 20.047 6.253 32.094 6.253 12.528 0 23.254-2.265 31.884-6.735 8.643-4.476 15.258-10.493 19.663-17.881 4.403-7.394 6.636-15.524 6.636-24.163 0-9.738-2.08-17.834-6.178-24.062-4.094-6.212-9.597-11.274-16.355-15.045"/></g></svg>