<svg width="132" height="28" viewBox="0 0 132 28" fill="none" xmlns="http://www.w3.org/2000/svg">
<path d="M19.5454 0.168041L12.7487 11.9399L5.93237 0.168041H4.38052L11.9826 13.2741L10.5683 15.7265L1.57149 0.168041H0L9.60572 16.7075H11.5308L12.7487 14.6082L13.5148 13.2741L21.1169 0.168041H19.5454Z" fill="#16163d"/>
<path d="M29.1707 0.167957L19.5846 16.7074H21.1757L30.1528 1.14895L35.987 11.2335H26.6956L26.0277 12.3911L36.6745 12.4107L39.1496 16.7074H40.7015L31.1154 0.167957H29.1707Z" fill="#16163d"/>
<path d="M60.3255 15.4322H46.8107V0.167957H45.3767V16.7074H60.3255V15.4322Z" fill="#16163d"/>
<path d="M83.5441 16.7074V0.167957H82.1102V7.81968H66.3953V0.167957H64.9613V16.7074H66.3953V9.07535H82.1102V16.7074H83.5441Z" fill="#16163d"/>
<path d="M98.5126 9.86014L89.9872 0.167957H88.1407L97.7858 11.1158V16.7074H99.2197V11.1158L108.845 0.167957H107.038L98.5126 9.86014Z" fill="#16163d"/>
<path d="M131.926 5.44568C131.926 2.32614 130.021 0.167957 125.817 0.167957H113.461V16.7074H114.895V1.404H125.542C128.862 1.404 130.473 2.85587 130.473 5.44568C130.473 8.0355 128.862 9.48736 125.542 9.48736H117.744L117.036 10.7038H125.719L130.099 16.7074H131.789L127.271 10.6057C130.473 10.1348 131.926 8.11398 131.926 5.44568Z" fill="#16163d"/>
<path d="M35.7709 22.8484C37.1263 22.8484 37.9906 23.5547 38.1281 24.2218H39.2282C39.071 22.9269 37.6567 21.9655 35.7709 21.9655C33.6494 21.9655 32.1368 23.1034 32.1368 24.8888C32.1368 26.6742 33.6298 27.8318 35.7709 27.8318C37.6763 27.8318 39.071 26.8508 39.2282 25.5559H38.1281C37.9906 26.223 37.1263 26.9293 35.7709 26.9293C34.2387 26.9293 33.2369 26.066 33.2369 24.8888C33.2369 23.7116 34.2387 22.8484 35.7709 22.8484Z" fill="#16163d"/>
<path d="M46.4178 22.103L43.3337 27.6554H44.4731L45.1606 26.3801H49.0304L49.7179 27.6554H50.8376L47.7732 22.103H46.4374H46.4178ZM45.5535 25.6149L47.066 22.7897L48.5786 25.6149H45.5535Z" fill="#16163d"/>
<path d="M59.6379 22.1028H55.611V27.6552H56.6717V26.0856H59.6379C60.9933 26.0856 61.8576 25.3205 61.8576 24.0844C61.8576 22.8484 60.9933 22.0832 59.6379 22.0832V22.1028ZM59.4218 25.2028H56.6717V23.0053H59.4218C60.2468 23.0053 60.7772 23.3193 60.7772 24.104C60.7772 24.8888 60.2468 25.2028 59.4218 25.2028Z" fill="#16163d"/>
<path d="M67.849 22.103H66.7882V27.6554H67.849V22.103Z" fill="#16163d"/>
<path d="M72.7009 23.0055H75.4117V27.6554H76.4529V23.0055H79.1244V22.103H72.7009V23.0055Z" fill="#16163d"/>
<path d="M85.371 22.103L82.287 27.6554H83.4263L84.1138 26.3801H87.9836L88.6712 27.6554H89.7908L86.7264 22.103H85.3907H85.371ZM84.5264 25.6149L86.0389 22.7897L87.5515 25.6149H84.5264Z" fill="#16163d"/>
<path d="M95.625 22.103H94.5839V27.6554H99.8091V26.7725H95.625V22.103Z" fill="#16163d"/>
</svg>
